<svg xmlns="http://www.w3.org/2000/svg" width="1400" height="820" viewBox="0 0 1400 820">
<rect x="0" y="0" width="1400" height="820" fill="#fbfbf7"/>
<path d="M0 0 H1400 V116 C1040 148 910 115 760 150 C520 200 320 128 0 176 Z" fill="#166534" opacity="0.08"/>
<text x="82" y="74" font-size="34" font-weight="700" fill="#172415">her用户申请记录</text>
<text x="84" y="118" font-size="20" fill="#3f4f3a">累计总人数趋势：2026-04-10 至 2026-06-19，当前 95 人</text>
<rect x="120" y="190" width="1140" height="420" rx="18" fill="#ffffff" stroke="#d9e5d2" stroke-width="2"/>
<text x="42" y="162" font-size="20" fill="#334032">总人数</text>
<line x1="120" y1="610.0" x2="1260" y2="610.0" stroke="#dfe8da" stroke-width="1"/><text x="54" y="615.0" font-size="14" fill="#536158">0</text><line x1="120" y1="505.0" x2="1260" y2="505.0" stroke="#dfe8da" stroke-width="1"/><text x="54" y="510.0" font-size="14" fill="#536158">25</text><line x1="120" y1="400.0" x2="1260" y2="400.0" stroke="#dfe8da" stroke-width="1"/><text x="54" y="405.0" font-size="14" fill="#536158">50</text><line x1="120" y1="295.0" x2="1260" y2="295.0" stroke="#dfe8da" stroke-width="1"/><text x="54" y="300.0" font-size="14" fill="#536158">75</text><line x1="120" y1="190.0" x2="1260" y2="190.0" stroke="#dfe8da" stroke-width="1"/><text x="54" y="195.0" font-size="14" fill="#536158">100</text>
<path d="M 120.0 610.0 L 120.0 551.2 L 136.3 551.2 L 152.6 551.2 L 168.9 551.2 L 185.1 551.2 L 201.4 551.2 L 217.7 526.0 L 234.0 526.0 L 250.3 526.0 L 266.6 526.0 L 282.9 526.0 L 299.1 526.0 L 315.4 526.0 L 331.7 513.4 L 348.0 513.4 L 364.3 513.4 L 380.6 513.4 L 396.9 513.4 L 413.1 513.4 L 429.4 513.4 L 445.7 437.8 L 462.0 437.8 L 478.3 437.8 L 494.6 437.8 L 510.9 437.8 L 527.1 437.8 L 543.4 437.8 L 559.7 437.8 L 576.0 437.8 L 592.3 437.8 L 608.6 437.8 L 624.9 437.8 L 641.1 437.8 L 657.4 437.8 L 673.7 437.8 L 690.0 437.8 L 706.3 437.8 L 722.6 437.8 L 738.9 437.8 L 755.1 437.8 L 771.4 387.4 L 787.7 387.4 L 804.0 379.0 L 820.3 379.0 L 836.6 379.0 L 852.9 261.4 L 869.1 261.4 L 885.4 261.4 L 901.7 261.4 L 918.0 261.4 L 934.3 253.0 L 950.6 253.0 L 966.9 253.0 L 983.1 253.0 L 999.4 253.0 L 1015.7 253.0 L 1032.0 253.0 L 1048.3 253.0 L 1064.6 253.0 L 1080.9 253.0 L 1097.1 253.0 L 1113.4 253.0 L 1129.7 253.0 L 1146.0 253.0 L 1162.3 253.0 L 1178.6 253.0 L 1194.9 253.0 L 1211.1 253.0 L 1227.4 253.0 L 1243.7 253.0 L 1260.0 211.0 L 1260.0 610.0 Z" fill="#166534" opacity="0.12"/>
<path d="M 120.0 551.2 L 136.3 551.2 L 152.6 551.2 L 168.9 551.2 L 185.1 551.2 L 201.4 551.2 L 217.7 526.0 L 234.0 526.0 L 250.3 526.0 L 266.6 526.0 L 282.9 526.0 L 299.1 526.0 L 315.4 526.0 L 331.7 513.4 L 348.0 513.4 L 364.3 513.4 L 380.6 513.4 L 396.9 513.4 L 413.1 513.4 L 429.4 513.4 L 445.7 437.8 L 462.0 437.8 L 478.3 437.8 L 494.6 437.8 L 510.9 437.8 L 527.1 437.8 L 543.4 437.8 L 559.7 437.8 L 576.0 437.8 L 592.3 437.8 L 608.6 437.8 L 624.9 437.8 L 641.1 437.8 L 657.4 437.8 L 673.7 437.8 L 690.0 437.8 L 706.3 437.8 L 722.6 437.8 L 738.9 437.8 L 755.1 437.8 L 771.4 387.4 L 787.7 387.4 L 804.0 379.0 L 820.3 379.0 L 836.6 379.0 L 852.9 261.4 L 869.1 261.4 L 885.4 261.4 L 901.7 261.4 L 918.0 261.4 L 934.3 253.0 L 950.6 253.0 L 966.9 253.0 L 983.1 253.0 L 999.4 253.0 L 1015.7 253.0 L 1032.0 253.0 L 1048.3 253.0 L 1064.6 253.0 L 1080.9 253.0 L 1097.1 253.0 L 1113.4 253.0 L 1129.7 253.0 L 1146.0 253.0 L 1162.3 253.0 L 1178.6 253.0 L 1194.9 253.0 L 1211.1 253.0 L 1227.4 253.0 L 1243.7 253.0 L 1260.0 211.0" fill="none" stroke="#166534" stroke-width="5" stroke-linejoin="round" stroke-linecap="round"/>
<circle cx="120.0" cy="551.2" r="4" fill="#166534" stroke="#ffffff" stroke-width="2"/><circle cx="282.9" cy="526.0" r="4" fill="#166534" stroke="#ffffff" stroke-width="2"/><circle cx="445.7" cy="437.8" r="4" fill="#166534" stroke="#ffffff" stroke-width="2"/><circle cx="608.6" cy="437.8" r="4" fill="#166534" stroke="#ffffff" stroke-width="2"/><circle cx="771.4" cy="387.4" r="4" fill="#166534" stroke="#ffffff" stroke-width="2"/><circle cx="934.3" cy="253.0" r="4" fill="#166534" stroke="#ffffff" stroke-width="2"/><circle cx="1097.1" cy="253.0" r="4" fill="#166534" stroke="#ffffff" stroke-width="2"/><circle cx="1260.0" cy="211.0" r="4" fill="#166534" stroke="#ffffff" stroke-width="2"/>
<text x="1152" y="218.0" font-size="22" font-weight="700" fill="#166534">95 人</text>
<text x="78.0" y="648" font-size="16" fill="#536158">2026-04-10</text><text x="452.6" y="648" font-size="16" fill="#536158">05-03</text><text x="843.4" y="648" font-size="16" fill="#536158">05-27</text><text x="1218.0" y="648" font-size="16" fill="#536158">2026-06-19</text>
<text x="1232" y="688" font-size="20" fill="#334032">日期</text>
<text x="82" y="705" font-size="18" fill="#334032">读取 281 条｜去重 95 人｜无申请时间 176 条未计入趋势</text>
<text x="82" y="750" font-size="17" fill="#5f675d">口径：本表内部按“姓名”人员 open_id 去重，同一人员按最早申请日期计入累计。</text>
</svg>