<svg xmlns="http://www.w3.org/2000/svg" viewBox="0 0 1480 1060" font-family="Noto Sans SC, PingFang SC, sans-serif">
  <!-- Background -->
  <rect x="0" y="0" width="1480" height="1060" fill="#FAFBFC"/>

  <!-- Title block -->
  <text x="40" y="50" font-size="28" font-weight="700" fill="#1F2937">AI API 产品 — 客户视角架构 (V2)</text>
  <text x="40" y="78" font-size="14" fill="#6B7280">主力 = ChatGPT Pool + Claude Max Pool · 网宿/OR/Kuaihui 兜底 · LiteLLM 加 用户/限额/Provider 策略</text>

  <!-- Legend -->
  <g transform="translate(940, 32)">
    <rect x="0" y="0" width="500" height="56" fill="#FFFFFF" stroke="#E5E7EB" stroke-width="1" rx="6"/>
    <rect x="14" y="14" width="14" height="14" fill="#16A34A" rx="2"/>
    <text x="34" y="26" font-size="12" fill="#374151">复用 (生产已跑)</text>
    <rect x="14" y="34" width="14" height="14" fill="#F59E0B" rx="2"/>
    <text x="34" y="46" font-size="12" fill="#374151">补能力 (LiteLLM 增量)</text>
    <rect x="160" y="14" width="14" height="14" fill="#DC2626" rx="2"/>
    <text x="180" y="26" font-size="12" fill="#374151">新建 (从零)</text>
    <rect x="160" y="34" width="14" height="14" fill="#0EA5E9" rx="2"/>
    <text x="180" y="46" font-size="12" fill="#374151">主力供应 (套利)</text>
    <rect x="320" y="14" width="14" height="14" fill="#9CA3AF" rx="2"/>
    <text x="340" y="26" font-size="12" fill="#374151">兜底供应</text>
  </g>

  <!-- ========================== Layer 1: Customers ========================== -->
  <text x="40" y="130" font-size="13" font-weight="600" fill="#9CA3AF">L1 · 客户层</text>

  <g transform="translate(280, 110)">
    <rect x="0" y="0" width="220" height="68" fill="#FFFFFF" stroke="#374151" stroke-width="2" rx="8"/>
    <circle cx="32" cy="34" r="16" fill="#1F2937"/>
    <text x="32" y="40" font-size="18" fill="#FFFFFF" text-anchor="middle">奇</text>
    <text x="58" y="28" font-size="15" font-weight="700" fill="#1F2937">奇瑞 (标杆)</text>
    <text x="58" y="46" font-size="11" fill="#6B7280">老杨直达董事长</text>
    <text x="58" y="60" font-size="11" fill="#16A34A" font-weight="600">0607 试用 · 0630 签约</text>
  </g>

  <g transform="translate(540, 110)">
    <rect x="0" y="0" width="220" height="68" fill="#FFFFFF" stroke="#374151" stroke-width="2" rx="8"/>
    <circle cx="32" cy="34" r="16" fill="#1F2937"/>
    <text x="32" y="40" font-size="18" fill="#FFFFFF" text-anchor="middle">吉</text>
    <text x="58" y="28" font-size="15" font-weight="700" fill="#1F2937">吉利</text>
    <text x="58" y="46" font-size="11" fill="#6B7280">商务关系建立中</text>
    <text x="58" y="60" font-size="11" fill="#9CA3AF">Phase 1 候选</text>
  </g>

  <g transform="translate(800, 110)">
    <rect x="0" y="0" width="220" height="68" fill="#FFFFFF" stroke="#374151" stroke-width="2" rx="8" stroke-dasharray="4 3"/>
    <circle cx="32" cy="34" r="16" fill="#9CA3AF"/>
    <text x="32" y="40" font-size="18" fill="#FFFFFF" text-anchor="middle">其</text>
    <text x="58" y="28" font-size="15" font-weight="700" fill="#1F2937">其他甲方</text>
    <text x="58" y="46" font-size="11" fill="#6B7280">汽车 / 制造 / 互联网</text>
    <text x="58" y="60" font-size="11" fill="#9CA3AF">Phase 2 拓展</text>
  </g>

  <!-- Connecting lines from customers -->
  <polyline points="390,178 390,210" fill="none" stroke="#374151" stroke-width="2"/>
  <polyline points="650,178 650,210" fill="none" stroke="#374151" stroke-width="2"/>
  <polyline points="910,178 910,210" fill="none" stroke="#374151" stroke-width="2"/>

  <!-- HTTPS label -->
  <rect x="540" y="186" width="220" height="22" fill="#FFFFFF" stroke="#D1D5DB" rx="11"/>
  <text x="650" y="201" font-size="11" fill="#374151" text-anchor="middle">HTTPS · OpenAI / Anthropic 兼容协议</text>

  <!-- ========================== Layer 2: Public Ingress ========================== -->
  <text x="40" y="248" font-size="13" font-weight="600" fill="#DC2626">L2 · 公网入口 (新建)</text>

  <g transform="translate(220, 220)">
    <rect x="0" y="0" width="900" height="78" fill="#FEF2F2" stroke="#DC2626" stroke-width="2" rx="10"/>
    <rect x="0" y="0" width="6" height="78" fill="#DC2626" rx="2"/>

    <g transform="translate(30, 14)">
      <rect x="0" y="0" width="180" height="50" fill="#FFFFFF" stroke="#DC2626" stroke-width="1" rx="6"/>
      <text x="14" y="20" font-size="13" font-weight="700" fill="#1F2937">新域名</text>
      <text x="14" y="36" font-size="11" fill="#6B7280">api.&lt;新品牌&gt;.com</text>
      <text x="14" y="46" font-size="9" fill="#DC2626" font-weight="600">0605</text>
    </g>

    <text x="220" y="46" font-size="20" fill="#DC2626" font-weight="700">→</text>

    <g transform="translate(248, 14)">
      <rect x="0" y="0" width="180" height="50" fill="#FFFFFF" stroke="#DC2626" stroke-width="1" rx="6"/>
      <text x="14" y="20" font-size="13" font-weight="700" fill="#1F2937">Cloudflare</text>
      <text x="14" y="36" font-size="11" fill="#6B7280">TLS · WAF · DDoS</text>
      <text x="14" y="46" font-size="9" fill="#DC2626" font-weight="600">0608</text>
    </g>

    <text x="438" y="46" font-size="20" fill="#DC2626" font-weight="700">→</text>

    <g transform="translate(466, 14)">
      <rect x="0" y="0" width="180" height="50" fill="#FFFFFF" stroke="#DC2626" stroke-width="1" rx="6"/>
      <text x="14" y="20" font-size="13" font-weight="700" fill="#1F2937">阿里云 SLB</text>
      <text x="14" y="36" font-size="11" fill="#6B7280">Ingress + 边缘限速</text>
      <text x="14" y="46" font-size="9" fill="#DC2626" font-weight="600">0610</text>
    </g>

    <text x="656" y="46" font-size="20" fill="#DC2626" font-weight="700">→</text>

    <g transform="translate(684, 14)">
      <rect x="0" y="0" width="186" height="50" fill="#FFFFFF" stroke="#DC2626" stroke-width="1" rx="6"/>
      <text x="14" y="20" font-size="13" font-weight="700" fill="#1F2937">客户 vkey 鉴权</text>
      <text x="14" y="36" font-size="11" fill="#6B7280">per-customer Bearer</text>
      <text x="14" y="46" font-size="9" fill="#DC2626" font-weight="600">0612</text>
    </g>
  </g>

  <!-- Connecting line down -->
  <polyline points="670,298 670,328" fill="none" stroke="#374151" stroke-width="2"/>

  <!-- ========================== Layer 3: LiteLLM with new capabilities ========================== -->
  <text x="40" y="350" font-size="13" font-weight="600" fill="#F59E0B">L3 · 对外路由 + 平台能力 (LiteLLM 增量)</text>

  <g transform="translate(220, 328)">
    <rect x="0" y="0" width="900" height="184" fill="#FFFBEB" stroke="#F59E0B" stroke-width="2" rx="10"/>
    <rect x="0" y="0" width="6" height="184" fill="#F59E0B" rx="2"/>

    <text x="30" y="28" font-size="15" font-weight="700" fill="#1F2937">litellm-public ns · litellm-proxy-public (replicas=3, HPA)</text>
    <text x="30" y="46" font-size="11" fill="#6B7280">v1.85.0 镜像复用 · 与 carher ns 物理隔离 · 不影响 227 个内部 her 实例</text>

    <!-- 4 capabilities, larger boxes -->
    <!-- 用户/账户管理 -->
    <g transform="translate(30, 60)">
      <rect x="0" y="0" width="208" height="108" fill="#FFFFFF" stroke="#F59E0B" stroke-width="1.5" rx="6"/>
      <rect x="0" y="0" width="4" height="108" fill="#F59E0B" rx="1"/>
      <text x="14" y="20" font-size="13" font-weight="700" fill="#92400E">① 用户 / 账户管理</text>
      <line x1="14" y1="28" x2="194" y2="28" stroke="#FEF3C7"/>
      <text x="14" y="46" font-size="10" fill="#374151">• per-customer Team</text>
      <text x="14" y="60" font-size="10" fill="#374151">• vkey 自动签发 + 撤销</text>
      <text x="14" y="74" font-size="10" fill="#374151">• 模型 allowlist (合同绑定)</text>
      <text x="14" y="88" font-size="10" fill="#374151">• 邀请 / 一键 onboard</text>
      <text x="14" y="102" font-size="9" fill="#92400E" font-weight="600">复用 carher-admin /key/* + 改造</text>
    </g>

    <!-- 限额管理 -->
    <g transform="translate(244, 60)">
      <rect x="0" y="0" width="208" height="108" fill="#FFFFFF" stroke="#F59E0B" stroke-width="1.5" rx="6"/>
      <rect x="0" y="0" width="4" height="108" fill="#F59E0B" rx="1"/>
      <text x="14" y="20" font-size="13" font-weight="700" fill="#92400E">② 限额管理</text>
      <line x1="14" y1="28" x2="194" y2="28" stroke="#FEF3C7"/>
      <text x="14" y="46" font-size="10" fill="#374151">• 日 / 月 USD 预算</text>
      <text x="14" y="60" font-size="10" fill="#374151">• RPM / TPM 限速</text>
      <text x="14" y="74" font-size="10" fill="#374151">• 软告警 80% / 硬熔断 100%</text>
      <text x="14" y="88" font-size="10" fill="#374151">• 单模型限额 + 全局限额</text>
      <text x="14" y="102" font-size="9" fill="#92400E" font-weight="600">参考 carher-* $100/天</text>
    </g>

    <!-- Provider 策略 -->
    <g transform="translate(458, 60)">
      <rect x="0" y="0" width="208" height="108" fill="#FFFFFF" stroke="#F59E0B" stroke-width="1.5" rx="6"/>
      <rect x="0" y="0" width="4" height="108" fill="#F59E0B" rx="1"/>
      <text x="14" y="20" font-size="13" font-weight="700" fill="#92400E">③ Provider 策略</text>
      <line x1="14" y1="28" x2="194" y2="28" stroke="#FEF3C7"/>
      <text x="14" y="46" font-size="10" fill="#374151">• 主力 → 兜底 fallback 链</text>
      <text x="14" y="60" font-size="10" fill="#374151">• simple-shuffle / sticky</text>
      <text x="14" y="74" font-size="10" fill="#374151">• 撞限自动切 / 熔断隔离</text>
      <text x="14" y="88" font-size="10" fill="#374151">• per-customer 路由策略</text>
      <text x="14" y="102" font-size="9" fill="#92400E" font-weight="600">套利最大化的核心</text>
    </g>

    <!-- 计费出账 -->
    <g transform="translate(672, 60)">
      <rect x="0" y="0" width="198" height="108" fill="#FFFFFF" stroke="#F59E0B" stroke-width="1.5" rx="6"/>
      <rect x="0" y="0" width="4" height="108" fill="#F59E0B" rx="1"/>
      <text x="14" y="20" font-size="13" font-weight="700" fill="#92400E">④ 计费 / 监控</text>
      <line x1="14" y1="28" x2="184" y2="28" stroke="#FEF3C7"/>
      <text x="14" y="46" font-size="10" fill="#374151">• SpendLogs → 月度账单</text>
      <text x="14" y="60" font-size="10" fill="#374151">• per-customer dashboard</text>
      <text x="14" y="74" font-size="10" fill="#374151">• Prometheus 监控 + 告警</text>
      <text x="14" y="88" font-size="10" fill="#374151">• 数据隔离开关 (合规)</text>
      <text x="14" y="102" font-size="9" fill="#92400E" font-weight="600">0620 出账脚本</text>
    </g>
  </g>

  <!-- Fan-out: primary lines (thick blue) and fallback line (thin gray dashed) -->
  <!-- to ChatGPT pool -->
  <polyline points="500,512 500,545 360,545 360,580" fill="none" stroke="#0EA5E9" stroke-width="3"/>
  <!-- to Claude Max pool -->
  <polyline points="840,512 840,545 980,545 980,580" fill="none" stroke="#0EA5E9" stroke-width="3"/>
  <text x="650" y="540" font-size="13" font-weight="700" fill="#0EA5E9" text-anchor="middle">主力 (套利核心)</text>

  <!-- to fallback row -->
  <polyline points="670,512 670,860" fill="none" stroke="#9CA3AF" stroke-width="1.5" stroke-dasharray="6 4"/>
  <text x="690" y="700" font-size="11" font-weight="600" fill="#6B7280">兜底 (非主流量)</text>

  <!-- ========================== Layer 4: Primary pools ========================== -->
  <text x="40" y="608" font-size="13" font-weight="600" fill="#0EA5E9">L4 · 主力供应池 (套利通道, 零开发)</text>

  <!-- ChatGPT Pool — main column -->
  <g transform="translate(60, 580)">
    <rect x="0" y="0" width="600" height="240" fill="#F0F9FF" stroke="#0EA5E9" stroke-width="3" rx="10"/>
    <rect x="0" y="0" width="600" height="40" fill="#0EA5E9" rx="10"/>
    <rect x="0" y="32" width="600" height="8" fill="#0EA5E9"/>
    <text x="20" y="27" font-size="16" font-weight="700" fill="#FFFFFF">ChatGPT Pool · 主力 ①</text>
    <text x="540" y="27" font-size="11" font-weight="600" fill="#FFFFFF">/responses</text>

    <!-- 5 acct boxes -->
    <text x="20" y="62" font-size="11" font-weight="600" fill="#0C4A6E">阿里云 K8s · simple-shuffle LB · 5 个独立 Pod (1 OAuth/Pod)</text>
    <g transform="translate(20, 70)">
      <rect x="0" y="0" width="108" height="42" fill="#FFFFFF" stroke="#0EA5E9" rx="4"/>
      <text x="54" y="18" font-size="11" font-weight="700" fill="#0C4A6E" text-anchor="middle">acct-7</text>
      <text x="54" y="34" font-size="9" fill="#6B7280" text-anchor="middle">PVC auth.json</text>
      <rect x="116" y="0" width="108" height="42" fill="#FFFFFF" stroke="#0EA5E9" rx="4"/>
      <text x="170" y="18" font-size="11" font-weight="700" fill="#0C4A6E" text-anchor="middle">acct-8</text>
      <text x="170" y="34" font-size="9" fill="#6B7280" text-anchor="middle">PVC auth.json</text>
      <rect x="232" y="0" width="108" height="42" fill="#FFFFFF" stroke="#0EA5E9" rx="4"/>
      <text x="286" y="18" font-size="11" font-weight="700" fill="#0C4A6E" text-anchor="middle">acct-9</text>
      <text x="286" y="34" font-size="9" fill="#6B7280" text-anchor="middle">PVC auth.json</text>
      <rect x="348" y="0" width="108" height="42" fill="#FFFFFF" stroke="#0EA5E9" rx="4"/>
      <text x="402" y="18" font-size="11" font-weight="700" fill="#0C4A6E" text-anchor="middle">acct-10</text>
      <text x="402" y="34" font-size="9" fill="#6B7280" text-anchor="middle">PVC auth.json</text>
      <rect x="464" y="0" width="108" height="42" fill="#FFFFFF" stroke="#0EA5E9" rx="4"/>
      <text x="518" y="18" font-size="11" font-weight="700" fill="#0C4A6E" text-anchor="middle">acct-11</text>
      <text x="518" y="34" font-size="9" fill="#6B7280" text-anchor="middle">PVC auth.json</text>
    </g>

    <line x1="20" y1="128" x2="580" y2="128" stroke="#BAE6FD"/>

    <!-- model + arbitrage -->
    <text x="20" y="148" font-size="11" font-weight="700" fill="#0C4A6E">模型</text>
    <text x="20" y="164" font-size="10" fill="#374151">chatgpt-gpt-5.5 / 5.4 / 5.3-codex / 5.3-codex-spark</text>

    <text x="20" y="186" font-size="11" font-weight="700" fill="#0C4A6E">套利逻辑</text>
    <text x="20" y="202" font-size="10" fill="#374151">订阅制 ($200/月/账号) → 摊到 token ≈ 市场价 5%-10%</text>
    <text x="20" y="216" font-size="10" fill="#374151">对外按市场价 ×0.75 出 → 毛利 85-95%（重度场景）</text>

    <!-- alert -->
    <g transform="translate(310, 150)">
      <rect x="0" y="0" width="270" height="76" fill="#FEF3C7" stroke="#F59E0B" stroke-width="1" rx="4"/>
      <text x="10" y="18" font-size="11" font-weight="700" fill="#92400E">⚠ 容量与扩容</text>
      <text x="10" y="34" font-size="10" fill="#374151">5 acct 同时服务内部 her + 外部客户</text>
      <text x="10" y="48" font-size="10" fill="#374151">5h / 7d 周期限会争用</text>
      <text x="10" y="62" font-size="10" fill="#DC2626" font-weight="600">0531 测吞吐基线 → 0607 评估扩 12-16</text>
    </g>
  </g>

  <!-- Claude Max Pool — main column -->
  <g transform="translate(680, 580)">
    <rect x="0" y="0" width="600" height="240" fill="#F0F9FF" stroke="#0EA5E9" stroke-width="3" rx="10"/>
    <rect x="0" y="0" width="600" height="40" fill="#0EA5E9" rx="10"/>
    <rect x="0" y="32" width="600" height="8" fill="#0EA5E9"/>
    <text x="20" y="27" font-size="16" font-weight="700" fill="#FFFFFF">Claude Max Pool · 主力 ②</text>
    <text x="535" y="27" font-size="11" font-weight="600" fill="#FFFFFF">/messages</text>

    <text x="20" y="62" font-size="11" font-weight="600" fill="#0C4A6E">OAuth 池 · sk-ant-oat 1 年寿命 · LiteLLM 内置识别</text>

    <g transform="translate(20, 70)">
      <rect x="0" y="0" width="180" height="42" fill="#FFFFFF" stroke="#0EA5E9" rx="4"/>
      <text x="90" y="18" font-size="11" font-weight="700" fill="#0C4A6E" text-anchor="middle">Pro 账号 ×1</text>
      <text x="90" y="34" font-size="9" fill="#6B7280" text-anchor="middle">起步配置</text>
      <rect x="190" y="0" width="180" height="42" fill="#FFFFFF" stroke="#0EA5E9" rx="4"/>
      <text x="280" y="18" font-size="11" font-weight="700" fill="#0C4A6E" text-anchor="middle">Max 5x ×2</text>
      <text x="280" y="34" font-size="9" fill="#6B7280" text-anchor="middle">spike 验证</text>
      <rect x="380" y="0" width="180" height="42" fill="#FFFFFF" stroke="#0EA5E9" rx="4" stroke-dasharray="3 2"/>
      <text x="470" y="18" font-size="11" font-weight="700" fill="#0C4A6E" text-anchor="middle">Max 20x ×N</text>
      <text x="470" y="34" font-size="9" fill="#6B7280" text-anchor="middle">需求驱动扩</text>
    </g>

    <line x1="20" y1="128" x2="580" y2="128" stroke="#BAE6FD"/>

    <text x="20" y="148" font-size="11" font-weight="700" fill="#0C4A6E">模型</text>
    <text x="20" y="164" font-size="10" fill="#374151">claude-opus-4-7 / sonnet-4-6 / haiku-4-5</text>

    <text x="20" y="186" font-size="11" font-weight="700" fill="#0C4A6E">套利倍数 (实测)</text>
    <text x="20" y="202" font-size="10" fill="#374151">中度 2x · 重度 Opus 6.6x · 实测 9.4x · Agent 15-25x</text>
    <text x="20" y="216" font-size="10" fill="#374151">极端单月 28x</text>

    <!-- 0615 risk -->
    <g transform="translate(310, 150)">
      <rect x="0" y="0" width="270" height="76" fill="#FEE2E2" stroke="#DC2626" stroke-width="1" rx="4"/>
      <text x="10" y="18" font-size="11" font-weight="700" fill="#991B1B">⚠ 0615 时间窗</text>
      <text x="10" y="34" font-size="10" fill="#374151">Anthropic Agent SDK Credit 池</text>
      <text x="10" y="48" font-size="10" fill="#374151">若 LiteLLM 转发被划入 → 倍数 1x</text>
      <text x="10" y="62" font-size="10" fill="#DC2626" font-weight="600">首单必须 0630 前签下</text>
    </g>
  </g>

  <!-- ========================== Layer 5: Fallback row ========================== -->
  <text x="40" y="870" font-size="13" font-weight="600" fill="#9CA3AF">L5 · 兜底供应 (主力撞限/熔断时自动切, 非常规流量)</text>

  <g transform="translate(60, 858)">
    <!-- 网宿 -->
    <rect x="0" y="0" width="400" height="80" fill="#F9FAFB" stroke="#9CA3AF" stroke-width="1.5" rx="8" stroke-dasharray="5 3"/>
    <rect x="0" y="0" width="400" height="22" fill="#9CA3AF" rx="8"/>
    <rect x="0" y="14" width="400" height="8" fill="#9CA3AF"/>
    <text x="14" y="16" font-size="12" font-weight="700" fill="#FFFFFF">网宿 AI Gateway · 兜底 ①</text>
    <text x="320" y="16" font-size="10" fill="#FFFFFF">/chat · /messages</text>
    <text x="14" y="40" font-size="10" fill="#374151">aigateway.edgecloudapp.com · multi-workspace</text>
    <text x="14" y="54" font-size="10" fill="#374151">主力撞 5h/7d 限时自动切 · 撑住 SLA</text>
    <text x="14" y="68" font-size="10" fill="#6B7280">市场价 ×50% 进货, 兜底场景毛利窄</text>
  </g>

  <g transform="translate(480, 858)">
    <!-- OpenRouter -->
    <rect x="0" y="0" width="380" height="80" fill="#F9FAFB" stroke="#9CA3AF" stroke-width="1.5" rx="8" stroke-dasharray="5 3"/>
    <rect x="0" y="0" width="380" height="22" fill="#9CA3AF" rx="8"/>
    <rect x="0" y="14" width="380" height="8" fill="#9CA3AF"/>
    <text x="14" y="16" font-size="12" font-weight="700" fill="#FFFFFF">OpenRouter · 兜底 ②</text>
    <text x="14" y="40" font-size="10" fill="#374151">openrouter.ai/api · 价格高、稳定</text>
    <text x="14" y="54" font-size="10" fill="#374151">网宿盲区 + 兜底兜底</text>
    <text x="14" y="68" font-size="10" fill="#6B7280">gpt-5.4 / gemini / glm / minimax / bge-m3</text>
  </g>

  <g transform="translate(880, 858)">
    <!-- Kuaihui -->
    <rect x="0" y="0" width="380" height="80" fill="#F9FAFB" stroke="#9CA3AF" stroke-width="1.5" rx="8" stroke-dasharray="5 3"/>
    <rect x="0" y="0" width="380" height="22" fill="#9CA3AF" rx="8"/>
    <rect x="0" y="14" width="380" height="8" fill="#9CA3AF"/>
    <text x="14" y="16" font-size="12" font-weight="700" fill="#FFFFFF">Kuaihui · 兜底 ③</text>
    <text x="14" y="40" font-size="10" fill="#374151">kuaihuiai.com/v1 · 国内通道</text>
    <text x="14" y="54" font-size="10" fill="#374151">少量国产模型补全</text>
    <text x="14" y="68" font-size="10" fill="#6B7280">kuaihui-* 系列</text>
  </g>

  <!-- ========================== Bottom: Risk timeline ========================== -->
  <text x="40" y="970" font-size="13" font-weight="600" fill="#9CA3AF">关键时间线 · 套利窗口</text>

  <g transform="translate(40, 982)">
    <line x1="50" y1="40" x2="1400" y2="40" stroke="#374151" stroke-width="2"/>

    <circle cx="100" cy="40" r="6" fill="#16A34A"/>
    <text x="100" y="28" font-size="11" font-weight="700" fill="#16A34A" text-anchor="middle">0527</text>
    <text x="100" y="62" font-size="10" fill="#6B7280" text-anchor="middle">OPP 对齐</text>

    <circle cx="280" cy="40" r="6" fill="#16A34A"/>
    <text x="280" y="28" font-size="11" font-weight="700" fill="#16A34A" text-anchor="middle">0531</text>
    <text x="280" y="62" font-size="10" fill="#6B7280" text-anchor="middle">两池吞吐基线 + Max spike</text>

    <circle cx="460" cy="40" r="6" fill="#F59E0B"/>
    <text x="460" y="28" font-size="11" font-weight="700" fill="#F59E0B" text-anchor="middle">0607</text>
    <text x="460" y="62" font-size="10" fill="#6B7280" text-anchor="middle">奇瑞试用启动</text>

    <circle cx="640" cy="40" r="6" fill="#F59E0B"/>
    <text x="640" y="28" font-size="11" font-weight="700" fill="#F59E0B" text-anchor="middle">0612</text>
    <text x="640" y="62" font-size="10" fill="#6B7280" text-anchor="middle">用户/限额/Provider 策略上线</text>

    <circle cx="820" cy="40" r="8" fill="#DC2626" stroke="#7F1D1D" stroke-width="2"/>
    <text x="820" y="26" font-size="12" font-weight="700" fill="#DC2626" text-anchor="middle">0615 ⚠</text>
    <text x="820" y="62" font-size="10" font-weight="700" fill="#DC2626" text-anchor="middle">Anthropic Credit 池</text>
    <text x="820" y="76" font-size="10" fill="#DC2626" text-anchor="middle">Max 套利或失效</text>

    <circle cx="1020" cy="40" r="8" fill="#DC2626" stroke="#7F1D1D" stroke-width="2"/>
    <text x="1020" y="26" font-size="12" font-weight="700" fill="#DC2626" text-anchor="middle">0630</text>
    <text x="1020" y="62" font-size="10" font-weight="700" fill="#DC2626" text-anchor="middle">首单签约 deadline</text>
    <text x="1020" y="76" font-size="10" fill="#DC2626" text-anchor="middle">(由 0615 倒逼)</text>

    <circle cx="1300" cy="40" r="6" fill="#1F2937"/>
    <text x="1300" y="28" font-size="11" font-weight="700" fill="#1F2937" text-anchor="middle">0728</text>
    <text x="1300" y="62" font-size="10" fill="#6B7280" text-anchor="middle">整套方案 ready</text>

    <rect x="820" y="34" width="200" height="12" fill="#FEE2E2" opacity="0.6"/>
  </g>
</svg>
