<svg xmlns="http://www.w3.org/2000/svg" width="1400" height="760" viewBox="0 0 1400 760">
<style>
  .title{font-family:'Noto Sans SC',sans-serif;font-size:30px;font-weight:800;fill:#172033}
  .subtitle{font-family:'Noto Sans SC',sans-serif;font-size:15px;fill:#64748b}
  .laneTitle{font-family:'Noto Sans SC',sans-serif;font-size:18px;font-weight:800;fill:#334155}
  .nodeTitle{font-family:'Noto Sans SC',sans-serif;font-size:17px;font-weight:800;fill:#172033}
  .nodeText{font-family:'Noto Sans SC',sans-serif;font-size:13px;fill:#64748b}
  .tiny{font-family:'Noto Sans SC',sans-serif;font-size:12px;fill:#64748b}
  .pill{font-family:'Noto Sans SC',sans-serif;font-size:12px;font-weight:700;fill:#14532d}
  .mainStroke{stroke:#16a34a;stroke-width:5;fill:none;stroke-linecap:round;stroke-linejoin:round}
  .fbStroke{stroke:#f97316;stroke-width:3;fill:none;stroke-dasharray:10 8;stroke-linecap:round;stroke-linejoin:round}
  .p1Stroke{stroke:#dc2626;stroke-width:3;fill:none;stroke-dasharray:7 7;stroke-linecap:round;stroke-linejoin:round}
</style><defs><marker id="g" viewBox="0 0 10 10" refX="9" refY="5" markerWidth="8" markerHeight="8" orient="auto-start-reverse"><path d="M 0 0 L 10 5 L 0 10 z" fill="#16a34a"/></marker><marker id="o" viewBox="0 0 10 10" refX="9" refY="5" markerWidth="8" markerHeight="8" orient="auto-start-reverse"><path d="M 0 0 L 10 5 L 0 10 z" fill="#f97316"/></marker></defs><rect x="0" y="0" width="1400" height="760" fill="#f8fafc"/><circle cx="1240" cy="92" r="54" fill="#dcfce7"/><circle cx="1295" cy="135" r="18" fill="#e0f2fe"/><text class="title" x="48" y="62">Her 双层 Fallback 稳定性架构</text><text class="subtitle" x="50" y="94">主链路先走 LiteLLM 内部自愈，LiteLLM 整体不可达时再由 OpenClaw 切直连兜底</text><rect x="1010" y="34" width="310" height="86" rx="18" fill="#ffffff" stroke="#dbe3ee"/><line x1="1035" y1="60" x2="1095" y2="60" class="mainStroke" marker-end="url(#g)"/><text class="tiny" x="1110" y="65">绿色：正常主链路</text><line x1="1035" y1="91" x2="1095" y2="91" class="fbStroke" marker-end="url(#o)"/><text class="tiny" x="1110" y="96">橙色：自动 fallback</text>
<rect x="40" y="140" width="240" height="470" rx="26" fill="#ffffff" stroke="#dbe3ee" stroke-width="1.5"/><text class="laneTitle" x="64" y="174">入口</text><rect x="320" y="140" width="290" height="470" rx="26" fill="#eef8ff" stroke="#dbe3ee" stroke-width="1.5"/><text class="laneTitle" x="344" y="174">Her Runtime</text><rect x="650" y="140" width="360" height="470" rx="26" fill="#f0fdf4" stroke="#dbe3ee" stroke-width="1.5"/><text class="laneTitle" x="674" y="174">第一层：LiteLLM Router</text><rect x="1050" y="140" width="300" height="470" rx="26" fill="#fff7ed" stroke="#dbe3ee" stroke-width="1.5"/><text class="laneTitle" x="1074" y="174">第二层：OpenClaw 直连</text>
<rect x="80" y="290" width="160" height="110" rx="18" fill="#ffffff" stroke="#16a34a" stroke-width="2.5"/><text class="nodeTitle" x="102" y="322">飞书用户</text><text class="nodeText" x="102" y="348">群聊 / 单聊</text><text class="nodeText" x="102" y="368">业务请求</text>
<rect x="350" y="225" width="220" height="98" rx="18" fill="#ffffff" stroke="#16a34a" stroke-width="2.5"/><text class="nodeTitle" x="372" y="257">Her 实例</text><text class="nodeText" x="372" y="283">OpenClaw runtime</text><text class="nodeText" x="372" y="303">默认 primary</text>
<rect x="350" y="385" width="220" height="116" rx="18" fill="#eef8ff" stroke="#0284c7" stroke-width="2.5"/><text class="nodeTitle" x="372" y="417">OpenClaw fallback</text><text class="nodeText" x="372" y="443">provider/model 候选链</text><text class="nodeText" x="372" y="463">处理网关整体不可达</text>
<rect x="680" y="215" width="145" height="98" rx="18" fill="#ffffff" stroke="#16a34a" stroke-width="2.5"/><text class="nodeTitle" x="702" y="247">LiteLLM Proxy</text><text class="nodeText" x="702" y="273">统一入口</text><text class="nodeText" x="702" y="293">虚拟 key</text>
<rect x="850" y="215" width="130" height="98" rx="18" fill="#eef8ff" stroke="#0284c7" stroke-width="2.5"/><text class="nodeTitle" x="872" y="247">Router</text><text class="nodeText" x="872" y="273">重试</text><text class="nodeText" x="872" y="293">冷却</text><text class="nodeText" x="872" y="313">路由</text>
<rect x="705" y="395" width="125" height="92" rx="18" fill="#ecfdf5" stroke="#059669" stroke-width="2.5"/><text class="nodeTitle" x="727" y="427">主供应商</text><text class="nodeText" x="727" y="453">主模型</text>
<rect x="860" y="395" width="125" height="92" rx="18" fill="#fff7ed" stroke="#f97316" stroke-width="2.5"/><text class="nodeTitle" x="882" y="427">备用供应商</text><text class="nodeText" x="882" y="453">同级模型</text>
<rect x="1092" y="230" width="215" height="92" rx="18" fill="#fff7ed" stroke="#f97316" stroke-width="2.5"/><text class="nodeTitle" x="1114" y="262">Anthropic 直连</text><text class="nodeText" x="1114" y="288">OpenClaw 第二层兜底</text>
<rect x="1092" y="358" width="215" height="92" rx="18" fill="#fff7ed" stroke="#f97316" stroke-width="2.5"/><text class="nodeTitle" x="1114" y="390">OpenRouter / Wangsu</text><text class="nodeText" x="1114" y="416">备用直连通道</text>
<rect x="610" y="642" width="180" height="70" rx="18" fill="#ecfdf5" stroke="#059669" stroke-width="2.5"/><text class="nodeTitle" x="632" y="674">回复用户</text><text class="nodeText" x="632" y="700">成功返回</text>
<path d="M240 345 H350" class="mainStroke" marker-end="url(#g)"/><path d="M570 274 H680" class="mainStroke" marker-end="url(#g)"/><path d="M825 264 H850" class="mainStroke" marker-end="url(#g)"/><path d="M915 313 V395" class="mainStroke" marker-end="url(#g)"/><path d="M768 487 V642" class="mainStroke" marker-end="url(#g)"/>
<path d="M915 313 C1010 330 1015 405 985 438" class="fbStroke" marker-end="url(#o)"/><path d="M460 341 V385" class="fbStroke" marker-end="url(#o)"/><path d="M570 443 C760 610 1040 310 1092 276" class="fbStroke" marker-end="url(#o)"/><path d="M570 443 C780 660 1040 440 1092 404" class="fbStroke" marker-end="url(#o)"/>
<text class="pill" x="275" y="334">主链路</text><text class="tiny" x="700" y="188">局部故障在网关内消化</text><text class="tiny" x="1085" y="188">整体故障由客户端兜底</text></svg>